HIERARCHY
ROOT hip
{
  OFFSET 0 0 0
  CHANNELS 6 Xposition Yposition Zposition Zrotation Yrotation Xrotation
  JOINT abdomen
  {
    OFFSET 0 20.6881 -0.73152
    CHANNELS 3 Zrotation Xrotation Yrotation
    JOINT chest
    {
      OFFSET 0 11.7043 -0.48768
      CHANNELS 3 Zrotation Xrotation Yrotation
      JOINT neck
      {
        OFFSET 0 22.1894 -2.19456
        CHANNELS 3 Zrotation Xrotation Yrotation
        JOINT head
        {
          OFFSET -0.24384 7.07133 1.2192
          CHANNELS 3 Zrotation Xrotation Yrotation
          JOINT leftEye
          {
            OFFSET 4.14528 8.04674 8.04672
            CHANNELS 3 Zrotation Xrotation Yrotation
            End Site
            {
              OFFSET 1 0 0
            }
          }
          JOINT rightEye
          {
            OFFSET -3.6576 8.04674 8.04672
            CHANNELS 3 Zrotation Xrotation Yrotation
            End Site
            {
              OFFSET 1 0 0
            }
          }
        }
      }
      JOINT rCollar
      {
        OFFSET -2.68224 19.2634 -4.8768
        CHANNELS 3 Zrotation Xrotation Yrotation
        JOINT rShldr
        {
          OFFSET -8.77824 -1.95073 1.46304
          CHANNELS 3 Zrotation Xrotation Yrotation
          JOINT rForeArm
          {
            OFFSET -28.1742 -1.7115 0.48768
            CHANNELS 3 Zrotation Xrotation Yrotation
            JOINT rHand
            {
              OFFSET -22.5879 0.773209 7.07136
              CHANNELS 3 Zrotation Xrotation Yrotation
              JOINT rThumb1
              {
                OFFSET -1.2192 -0.487915 3.41376
                CHANNELS 3 Zrotation Xrotation Yrotation
                JOINT rThumb2
                {
                  OFFSET -3.37035 -0.52449 3.41376
                  CHANNELS 3 Zrotation Xrotation Yrotation
                  End Site
                  {
                    OFFSET -1.78271 -1.18214 1.43049
                  }
                }
              }
              JOINT rIndex1
              {
                OFFSET -7.75947 0.938293 5.60832
                CHANNELS 3 Zrotation Xrotation Yrotation
                JOINT rIndex2
                {
                  OFFSET -2.54057 -0.884171 1.56538
                  CHANNELS 3 Zrotation Xrotation Yrotation
                  End Site
                  {
                    OFFSET -1.62519 -0.234802 1.16502
                  }
                }
              }
              JOINT rMid1
              {
                OFFSET -8.24714 1.18213 3.41376
                CHANNELS 3 Zrotation Xrotation Yrotation
                JOINT rMid2
                {
                  OFFSET -3.10165 -0.590103 1.0647
                  CHANNELS 3 Zrotation Xrotation Yrotation
                  End Site
                  {
                    OFFSET -2.48547 -0.328903 0.83742
                  }
                }
              }
              JOINT rRing1
              {
                OFFSET -8.82822 0.546677 1.51678
                CHANNELS 3 Zrotation Xrotation Yrotation
                JOINT rRing2
                {
                  OFFSET -2.60934 -0.819778 -0.0198488
                  CHANNELS 3 Zrotation Xrotation Yrotation
                  End Site
                  {
                    OFFSET -2.33842 -0.294052 0.168128
                  }
                }
              }
              JOINT rPinky1
              {
                OFFSET -8.27202 -0.0477905 -0.4584
                CHANNELS 3 Zrotation Xrotation Yrotation
                JOINT rPinky2
                {
                  OFFSET -1.82734 -0.647385 -0.700984
                  CHANNELS 3 Zrotation Xrotation Yrotation
                  End Site
                  {
                    OFFSET -1.69225 -0.51767 -0.607171
                  }
                }
              }
            }
          }
        }
      }
      JOINT lCollar
      {
        OFFSET 2.68224 19.2634 -4.8768
        CHANNELS 3 Zrotation Xrotation Yrotation
        JOINT lShldr
        {
          OFFSET 8.77824 -1.95073 1.46304
          CHANNELS 3 Zrotation Xrotation Yrotation
          JOINT lForeArm
          {
            OFFSET 28.1742 -1.7115 0.48768
            CHANNELS 3 Zrotation Xrotation Yrotation
            JOINT lHand
            {
              OFFSET 22.5879 0.773209 7.07136
              CHANNELS 3 Zrotation Xrotation Yrotation
              JOINT lThumb1
              {
                OFFSET 1.2192 -0.487915 3.41376
                CHANNELS 3 Zrotation Xrotation Yrotation
                JOINT lThumb2
                {
                  OFFSET 3.37035 -0.52449 3.41376
                  CHANNELS 3 Zrotation Xrotation Yrotation
                  End Site
                  {
                    OFFSET 1.78271 -1.18214 1.43049
                  }
                }
              }
              JOINT lIndex1
              {
                OFFSET 7.75947 0.938293 5.60832
                CHANNELS 3 Zrotation Xrotation Yrotation
                JOINT lIndex2
                {
                  OFFSET 2.54057 -0.884171 1.56538
                  CHANNELS 3 Zrotation Xrotation Yrotation
                  End Site
                  {
                    OFFSET 1.62519 -0.234802 1.16502
                  }
                }
              }
              JOINT lMid1
              {
                OFFSET 8.24714 1.18213 3.41376
                CHANNELS 3 Zrotation Xrotation Yrotation
                JOINT lMid2
                {
                  OFFSET 3.10165 -0.590103 1.0647
                  CHANNELS 3 Zrotation Xrotation Yrotation
                  End Site
                  {
                    OFFSET 2.48547 -0.328903 0.83742
                  }
                }
              }
              JOINT lRing1
              {
                OFFSET 8.82822 0.546677 1.51678
                CHANNELS 3 Zrotation Xrotation Yrotation
                JOINT lRing2
                {
                  OFFSET 2.60934 -0.819778 -0.0198488
                  CHANNELS 3 Zrotation Xrotation Yrotation
                  End Site
                  {
                    OFFSET 2.33842 -0.294052 0.168128
                  }
                }
              }
              JOINT lPinky1
              {
                OFFSET 8.27202 -0.0477905 -0.4584
                CHANNELS 3 Zrotation Xrotation Yrotation
                JOINT lPinky2
                {
                  OFFSET 1.82734 -0.647385 -0.700984
                  CHANNELS 3 Zrotation Xrotation Yrotation
                  End Site
                  {
                    OFFSET 1.69225 -0.51767 -0.607171
                  }
                }
              }
            }
          }
        }
      }
    }
  }
  JOINT rButtock
  {
    OFFSET -8.77824 4.35084 1.2192
    CHANNELS 3 Zrotation Xrotation Yrotation
    JOINT rThigh
    {
      OFFSET 0 -1.70687 -2.19456
      CHANNELS 3 Zrotation Xrotation Yrotation
      JOINT rShin
      {
        OFFSET 0 -36.8199 0.73152
        CHANNELS 3 Zrotation Xrotation Yrotation
        JOINT rFoot
        {
          OFFSET 0.73152 -45.1104 -5.12064
          CHANNELS 3 Zrotation Xrotation Yrotation
          End Site
          {
            OFFSET -1.1221 -3.69964 12.103
          }
        }
      }
    }
  }
  JOINT lButtock
  {
    OFFSET 8.77824 4.35084 1.2192
    CHANNELS 3 Zrotation Xrotation Yrotation
    JOINT lThigh
    {
      OFFSET 0 -1.70687 -2.19456
      CHANNELS 3 Zrotation Xrotation Yrotation
      JOINT lShin
      {
        OFFSET 0 -36.8199 0.73152
        CHANNELS 3 Zrotation Xrotation Yrotation
        JOINT lFoot
        {
          OFFSET -0.73152 -45.1104 -5.12064
          CHANNELS 3 Zrotation Xrotation Yrotation
          End Site
          {
            OFFSET 1.1221 -3.69964 12.103
          }
        }
      }
    }
  }
}
MOTION
Frames:	4
Frame Time:	0.03333
-8.895579996984452 58.06610107421875 34.52640014584176 -7.186000049114227 12.427300661802292 8.415599763393402 3.3832398802042007 17.408999651670456 10.09940005838871 -0.7508979924023151 -12.364099770784378 2.9438598453998566 -8.146210089325905 14.508799463510513 -9.882430136203766 12.462400048971176 -32.39249914884567 -16.056600362062454 0.0 0.0 0.0 0.0 0.0 0.0 0.0 0.0 0.0 13.465700447559357 -12.637399435043335 57.533801794052124 -17.134100049734116 -9.765880107879639 32.17400103807449 -0.03628909878898412 5.564330108463764 0.7833440043032169 2.1103119252074976e-10 -1.1408474165364169e-09 -4.834532774111722e-10 3.625899580583791e-10 -1.984972186619416e-09 -8.390088623855263e-10 2.1103119252074976e-10 -1.1408474165364169e-09 -4.834532774111722e-10 7.7309102565050125 5.474880114197731 0.41731400415301323 2.1103119252074976e-10 -1.1408474165364169e-09 -4.834532774111722e-10 2.905540131032467 0.9651830233633518 0.102901995414868 2.1103119252074976e-10 -1.1408474165364169e-09 -4.834532774111722e-10 10.27859978377819 0.7318009994924068 0.025912300043273717 2.1103119252074976e-10 -1.1408474165364169e-09 -4.834532774111722e-10 2.221670038998127 -0.733487019315362 -0.2089200052432716 0.0 0.0 0.0 -102.26000189781189 67.99899816513062 26.195898950099945 27.86929965019226 -41.125101149082184 -85.90270042419434 0.12616500374861062 14.448999613523483 -1.9943600334227085 -7.104716814865242e-10 1.2354917089396622e-09 -1.5782575246703345e-09 -1.2297363127800054e-09 2.1231016944511794e-09 -2.7063151719630696e-09 -7.104716814865242e-10 1.2354917089396622e-09 -1.5782575246703345e-09 -7.7309102565050125 5.474880114197731 -0.41731400415301323 -7.104716814865242e-10 1.2354917089396622e-09 -1.5782575246703345e-09 -2.905540131032467 0.9651830233633518 -0.102901995414868 -7.104716814865242e-10 1.2354917089396622e-09 -1.5782575246703345e-09 -10.27859978377819 0.7318009994924068 -0.025912300043273717 -7.104716814865242e-10 1.2354917089396622e-09 -1.5782575246703345e-09 -2.221670038998127 -0.733487019315362 0.2089200052432716 0.0 0.0 0.0 -5.30869010835886 -46.39730215072632 -22.642698884010315 -1.9731999188661575 71.89559876918793 3.51289015263319 -12.536199688911438 -15.64229965209961 -31.517200469970703 0.0 0.0 0.0 4.619250074028969 -56.78159773349762 4.805280044674873 174.6440041065216 75.30509948730469 -174.7879958152771 2.2664999775588512 -5.635170266032219 8.710780218243599
-8.770080003421754 57.913299560546875 36.78450017864816 -8.055000230669975 10.815199837088585 7.407799959182739 4.789209924638271 18.400299847126007 10.40789969265461 -0.8858619723469019 -12.414600402116776 3.0835499614477158 -8.288569673895836 14.268300533294678 -9.515670239925385 11.965799778699875 -31.962900459766388 -15.45359954237938 0.0 0.0 0.0 0.0 0.0 0.0 0.0 0.0 0.0 12.493899911642075 -12.152000069618225 58.3817982673645 -18.06510016322136 -10.691299885511398 34.39449995756149 -0.00975653005298227 0.9478360041975975 0.13070400338619947 1.2968826013093349e-09 5.578897344094003e-09 1.432454155292362e-10 2.240767571493052e-09 9.638370102038607e-09 2.48121523327427e-10 1.2968826013093349e-09 5.578897344094003e-09 1.432454155292362e-10 7.7309102565050125 5.474880114197731 0.41731400415301323 1.2968826013093349e-09 5.578897344094003e-09 1.432454155292362e-10 2.905540131032467 0.9651830233633518 0.102901995414868 1.2968826013093349e-09 5.578897344094003e-09 1.432454155292362e-10 10.27859978377819 0.7318009994924068 0.025912300043273717 1.2968826013093349e-09 5.578897344094003e-09 1.432454155292362e-10 2.221670038998127 -0.733487019315362 -0.2089200052432716 0.0 0.0 0.0 -90.92270135879517 68.3920007944107 11.126399785280228 27.45770126581192 -42.68459916114807 -88.84290039539337 1.435759998857975 33.825300335884094 -5.291710048913956 -2.8118307682234445e-09 2.7231976673647296e-08 -3.6067149267182685e-10 -4.855635893363797e-09 4.708425649369019e-08 -5.32054400537163e-10 -2.8118307682234445e-09 2.7231976673647296e-08 -3.6067149267182685e-10 -7.7309102565050125 5.474880114197731 -0.41731400415301323 -2.8118307682234445e-09 2.7231976673647296e-08 -3.6067149267182685e-10 -2.905540131032467 0.9651830233633518 -0.102901995414868 -2.8118307682234445e-09 2.7231976673647296e-08 -3.6067149267182685e-10 -10.27859978377819 0.7318009994924068 -0.025912300043273717 -2.8118307682234445e-09 2.7231976673647296e-08 -3.6067149267182685e-10 -2.221670038998127 -0.733487019315362 0.2089200052432716 0.0 0.0 0.0 -2.5059499964118004 -43.74460011720657 -19.960799664258957 -1.9354800134897232 71.61210000514984 3.453429937362671 -12.978800386190414 -16.5904001891613 -32.03199952840805 0.0 0.0 0.0 0.87348198518157 -62.885597348213196 1.9306599162518978 173.81999731063843 77.32640147209167 -173.7029993534088 2.264889981597662 -5.278099849820137 7.196490168571472
-8.61338000325486 57.82720184326172 39.09990006382577 -8.67890015244484 8.543299734592438 6.559000164270401 5.538629852235317 19.24819976091385 10.591500252485275 -1.0040799994021654 -12.604900449514389 3.1551599130034447 -8.216359913349152 13.977000564336777 -8.862150013446808 11.446699798107147 -31.456799805164337 -14.28719937801361 0.0 0.0 0.0 0.0 0.0 0.0 0.0 0.0 0.0 12.03860029578209 -10.57499997317791 59.71519947052002 -19.946299642324448 -12.979099452495575 38.55789989233017 -0.016742800507927313 -5.081760138273239 -0.7140880264341831 8.72262262419099e-10 6.3513994064123835e-09 9.694645086710807e-10 1.4996004438216914e-09 1.0963390195684042e-08 1.6729018170735799e-09 8.72262262419099e-10 6.3513994064123835e-09 9.694645086710807e-10 7.7309102565050125 5.474880114197731 0.41731400415301323 8.72262262419099e-10 6.3513994064123835e-09 9.694645086710807e-10 2.905540131032467 0.9651830233633518 0.102901995414868 8.72262262419099e-10 6.3513994064123835e-09 9.694645086710807e-10 10.27859978377819 0.7318009994924068 0.025912300043273717 8.72262262419099e-10 6.3513994064123835e-09 9.694645086710807e-10 2.221670038998127 -0.733487019315362 -0.2089200052432716 0.0 0.0 0.0 -77.05889940261841 66.57520115375519 -6.000790223479271 26.929099559783936 -44.2340013384819 -91.87299728393555 3.519040122628212 45.02079784870148 -8.172619789838791 -3.1443647685591714e-09 2.8477700197981903e-08 8.645884008728899e-10 -5.403038016993378e-09 4.915619911116664e-08 1.5987211554602254e-09 -3.1443647685591714e-09 2.8477700197981903e-08 8.645884008728899e-10 -7.7309102565050125 5.474880114197731 -0.41731400415301323 -3.1443647685591714e-09 2.8477700197981903e-08 8.645884008728899e-10 -2.905540131032467 0.9651830233633518 -0.102901995414868 -3.1443647685591714e-09 2.8477700197981903e-08 8.645884008728899e-10 -10.27859978377819 0.7318009994924068 -0.025912300043273717 -3.1443647685591714e-09 2.8477700197981903e-08 8.645884008728899e-10 -2.221670038998127 -0.733487019315362 0.2089200052432716 0.0 0.0 0.0 0.12470999965444207 -41.10010027885437 -16.778299659490585 -1.873259972780943 71.17709934711456 3.3780400827527046 -13.35069939494133 -17.466499507427216 -32.49100059270859 0.0 0.0 0.0 -1.430010013282299 -67.85160005092621 0.1407999952789396 171.79500460624695 80.75329899787903 -171.51600122451782 2.1256199665367603 -4.625899940729141 5.91003030538559
-8.430779996793717 57.81669998168945 41.43720012600534 -9.007700085639954 5.643000304698944 5.987699702382088 5.638950169086456 19.954099506139755 10.646700114011765 -1.1057000141590834 -12.934999912977219 3.1587500497698784 -7.92295977473259 13.631699681282043 -7.923480123281479 10.878799706697464 -30.854300558567047 -12.569700479507446 0.0 0.0 0.0 0.0 0.0 0.0 6.394884621840902e-13 0.0 0.0 12.001399397850037 -8.06982010602951 61.64929747581482 -22.206900268793106 -16.049700379371643 44.88909870386124 -0.18587999744340777 -12.519199848175049 -1.788790002465248 -1.0615508472255897e-09 1.184332631964935e-09 1.9952040020143613e-09 -1.8596324480313342e-09 1.9900880943168886e-09 3.4378899727016687e-09 -1.0615508472255897e-09 1.184332631964935e-09 1.9952040020143613e-09 7.7309102565050125 5.474880114197731 0.41731400415301323 -1.0615508472255897e-09 1.184332631964935e-09 1.9952040020143613e-09 2.905540131032467 0.9651830233633518 0.102901995414868 -1.0615508472255897e-09 1.184332631964935e-09 1.9952040020143613e-09 10.27859978377819 0.7318009994924068 0.025912300043273717 -1.0615508472255897e-09 1.184332631964935e-09 1.9952040020143613e-09 2.221670038998127 -0.733487019315362 -0.2089200052432716 6.394884621840902e-13 0.0 0.0 -64.54489767551422 62.18469858169556 -21.51119962334633 26.27119928598404 -45.78479826450348 -95.00599980354309 4.143489897251129 48.220898509025574 -9.101789966225624 -1.7080736824937048e-09 4.972662281943485e-09 2.0975221559638157e-09 -2.871942683668749e-09 8.338929546880536e-09 3.6783376344828866e-09 -1.7080736824937048e-09 4.972662281943485e-09 2.0975221559638157e-09 -7.7309102565050125 5.474880114197731 -0.41731400415301323 -1.7080736824937048e-09 4.972662281943485e-09 2.0975221559638157e-09 -2.905540131032467 0.9651830233633518 -0.102901995414868 -1.7080736824937048e-09 4.972662281943485e-09 2.0975221559638157e-09 -10.27859978377819 0.7318009994924068 -0.025912300043273717 -1.7080736824937048e-09 4.972662281943485e-09 2.0975221559638157e-09 -2.221670038998127 -0.733487019315362 0.2089200052432716 0.0 0.0 0.0 2.4862900748848915 -38.40150028467178 -13.131899535655975 -1.7894399352371693 70.59060215950012 3.2896599546074867 -13.647000342607498 -18.27329993247986 -32.891298830509186 0.0 0.0 0.0 -1.0945599619299173 -71.73200011253357 0.47905501909554005 163.94100308418274 85.5392986536026 -163.59099626541138 1.860399954020977 -3.6795300990343094 4.853069968521595
